<svg xmlns="http://www.w3.org/2000/svg" width="36.051" height="35.155" viewBox="0 0 36.051 35.155">
  <g id="foot_call_icon" transform="translate(-0.004)">
    <g id="그룹_24" data-name="그룹 24" transform="translate(0.004)">
      <path id="패스_2114" data-name="패스 2114" d="M18.033,23.342c-.585-.871-3.831.124-4.726.435s-3-1.443-4.067-3.433l-.149-.274c-1.194-1.928-1.667-4.627-.945-5.249s3.209-2.935,2.749-3.88a42.572,42.572,0,0,0-4.229-5.92C6.019,4.512,4.265,3.156.944,6.8S4.166,22.186,4.166,22.186l.784,1.356s6.89,11.542,11.7,10.485,4.515-3.246,4.4-4.067a44.272,44.272,0,0,0-3.01-6.617Z" transform="translate(-0.004 1.06)" fill="#e6182e"/>
      <path id="패스_2115" data-name="패스 2115" d="M19.224,0A14.634,14.634,0,0,0,8.49,4.639l1.8,1.7a12.168,12.168,0,0,1,8.918-3.856,12.281,12.281,0,0,1,2.848,24.228l.572,2.425A14.771,14.771,0,0,0,19.224,0Z" transform="translate(2.064)" fill="#e6182e"/>
      <path id="패스_2116" data-name="패스 2116" d="M17.823,10.64a1.853,1.853,0,1,0,1.853,1.853A1.858,1.858,0,0,0,17.823,10.64Z" transform="translate(3.888 2.593)" fill="#e6182e"/>
      <path id="패스_2117" data-name="패스 2117" d="M14.846,12.493a1.853,1.853,0,1,0-1.853,1.853A1.858,1.858,0,0,0,14.846,12.493Z" transform="translate(2.71 2.593)" fill="#e6182e"/>
      <path id="패스_2118" data-name="패스 2118" d="M24.5,12.493a1.853,1.853,0,1,0-1.853,1.853A1.858,1.858,0,0,0,24.5,12.493Z" transform="translate(5.063 2.593)" fill="#e6182e"/>
    </g>
  </g>
</svg>
