<svg xmlns="http://www.w3.org/2000/svg" xmlns:xlink="http://www.w3.org/1999/xlink" width="82" height="82" viewBox="0 0 82 82">
  <defs>
    <clipPath id="clip-path">
      <rect id="사각형_29" data-name="사각형 29" width="82" height="82" transform="translate(1079 3128)" fill="#fff"/>
    </clipPath>
  </defs>
  <g id="sec03_icon01" transform="translate(-1079 -3128)" clip-path="url(#clip-path)">
    <g id="icon01" transform="translate(1079 3132.827)">
      <path id="패스_2061" data-name="패스 2061" d="M30.2,43.215a.812.812,0,0,1-.7-.4,118.533,118.533,0,0,1-8.284-17.333.81.81,0,0,1,1.517-.569A116.881,116.881,0,0,0,30.9,42a.81.81,0,0,1-.7,1.215Z" fill="#fff"/>
      <path id="패스_2062" data-name="패스 2062" d="M58.86,72.347c-2.665,0-6.04-1.652-9.942-4.9-4.979-4.141-10.5-10.663-15.555-18.364a.81.81,0,0,1,1.355-.889C39.684,55.768,45.094,62.162,49.954,66.2c4.7,3.908,8.513,5.354,10.738,4.068,2.515-1.452,3.013-6.453,1.367-13.725C60.322,48.873,56.43,39.564,51.1,30.335,39.323,9.936,26.188-.753,21.31,2.063,20,2.821,19.234,4.518,19.04,7.105a.81.81,0,0,1-1.616-.121C17.663,3.829,18.7,1.7,20.5.66,23.72-1.2,28.861.9,34.978,6.551,40.872,12,47.095,20.16,52.5,29.525S61.864,48.36,63.638,56.189c1.841,8.128,1.081,13.625-2.138,15.484a5.192,5.192,0,0,1-2.642.672Z" fill="#fff"/>
      <path id="패스_2063" data-name="패스 2063" d="M21.972,26a.81.81,0,0,1-.759-.526,69.907,69.907,0,0,1-3.082-10.406.81.81,0,1,1,1.588-.324,68.317,68.317,0,0,0,3.013,10.161.811.811,0,0,1-.474,1.043.822.822,0,0,1-.283.051Z" fill="#fff"/>
      <path id="패스_2064" data-name="패스 2064" d="M41,49.452c-10.815,0-20.992-1.31-28.658-3.689C4.384,43.292,0,39.884,0,36.169s4.384-7.124,12.342-9.594C20.008,24.2,30.185,22.885,41,22.885s20.992,1.31,28.658,3.689C77.616,29.045,82,32.451,82,36.169c0,3.011-2.831,5.807-8.187,8.085a.81.81,0,0,1-.636-1.49c4.643-1.976,7.2-4.319,7.2-6.6,0-5.633-15.825-11.663-39.38-11.663S1.62,30.535,1.62,36.169,17.444,47.832,41,47.832a108.628,108.628,0,0,0,23.485-2.371.81.81,0,1,1,.358,1.579A110.269,110.269,0,0,1,41,49.45Z" fill="#fff"/>
      <path id="패스_2065" data-name="패스 2065" d="M23.128,72.341a5.171,5.171,0,0,1-2.628-.666c-3.218-1.859-3.977-7.358-2.138-15.484,1.772-7.828,5.726-17.3,11.135-26.664S41.128,12,47.022,6.553C53.139.9,58.282-1.2,61.5.662c2.681,1.549,3.667,5.562,2.849,11.609-.767,5.668-3.021,12.678-6.514,20.267a.81.81,0,1,1-1.472-.678c6.806-14.784,8.626-27.316,4.329-29.8-2.515-1.452-7.1.618-12.569,5.678-5.777,5.342-11.894,13.366-17.222,22.6S21.683,48.875,19.945,56.549C18.3,63.819,18.8,68.82,21.312,70.274c1.972,1.138,5.279.1,9.312-2.938A.81.81,0,0,1,31.6,68.63c-3.274,2.462-6.146,3.714-8.468,3.714Z" fill="#fff"/>
      <path id="패스_2066" data-name="패스 2066" d="M37.9,62.512a.809.809,0,0,1-.593-1.359A108.719,108.719,0,0,0,51.1,42c.429-.743.857-1.5,1.272-2.254a.809.809,0,1,1,1.417.782c-.419.761-.852,1.529-1.288,2.282A110.272,110.272,0,0,1,38.5,62.253a.809.809,0,0,1-.6.259Z" fill="#fff"/>
      <path id="패스_2067" data-name="패스 2067" d="M41,40.947a4.779,4.779,0,1,1,4.779-4.779A4.785,4.785,0,0,1,41,40.947Zm0-7.938a3.159,3.159,0,1,0,3.159,3.159A3.163,3.163,0,0,0,41,33.01Z" fill="#fff"/>
      <path id="패스_2068" data-name="패스 2068" d="M69.3,49.452a4.779,4.779,0,1,1,4.779-4.779A4.785,4.785,0,0,1,69.3,49.452Zm0-7.938a3.159,3.159,0,1,0,3.159,3.159A3.163,3.163,0,0,0,69.3,41.514Z" fill="#fff"/>
      <path id="패스_2069" data-name="패스 2069" d="M18.181,15.79a4.779,4.779,0,1,1,4.779-4.779A4.785,4.785,0,0,1,18.181,15.79Zm0-7.938a3.159,3.159,0,1,0,3.159,3.159,3.163,3.163,0,0,0-3.159-3.159Z" fill="#fff"/>
      <path id="패스_2070" data-name="패스 2070" d="M34.166,69.446a4.779,4.779,0,1,1,4.779-4.779A4.785,4.785,0,0,1,34.166,69.446Zm0-7.938a3.159,3.159,0,1,0,3.159,3.159A3.163,3.163,0,0,0,34.166,61.508Z" fill="#fff"/>
    </g>
  </g>
</svg>
