<svg xmlns="http://www.w3.org/2000/svg" xmlns:xlink="http://www.w3.org/1999/xlink" width="82" height="82" viewBox="0 0 82 82">
  <defs>
    <clipPath id="clip-path">
      <rect id="사각형_29" data-name="사각형 29" width="82" height="82" transform="translate(1079 3128)" fill="#fff"/>
    </clipPath>
  </defs>
  <g id="sec03_icon03" transform="translate(-1079 -3128)" clip-path="url(#clip-path)">
    <g id="icon04" transform="translate(1081.352 3128)">
      <g id="그룹_23" data-name="그룹 23">
        <path id="패스_2096" data-name="패스 2096" d="M46.192,68.548H31.1a.814.814,0,0,1-.658-.337c-.069-.1-6.9-9.548-9.652-13.525l-.1-.136c-3.742-5.39-7.611-10.965-7.528-18.171A25.072,25.072,0,0,1,38.312,11.526c.112,0,.224,0,.335,0a25.074,25.074,0,0,1,25.478,24.85c.083,7.174-3.76,12.727-7.477,18.1l-.146.209c-2.754,3.977-9.583,13.43-9.652,13.525a.814.814,0,0,1-.658.337ZM31.52,66.922H45.777c1.246-1.725,6.941-9.623,9.39-13.162l.146-.209c3.573-5.16,7.266-10.5,7.188-17.153A23.45,23.45,0,0,0,38.66,13.153h-.022A23.45,23.45,0,0,0,14.8,36.4c-.077,6.689,3.642,12.046,7.239,17.226l.1.138C24.579,57.3,30.274,65.2,31.52,66.924Z" fill="#fff"/>
        <path id="패스_2097" data-name="패스 2097" d="M19.381,37.461h-.008a.814.814,0,0,1-.807-.819,19.418,19.418,0,0,1,.9-5.735.812.812,0,1,1,1.549.492,17.809,17.809,0,0,0-.823,5.256.814.814,0,0,1-.813.807Z" fill="#fff"/>
        <path id="패스_2098" data-name="패스 2098" d="M21.511,28.892a.8.8,0,0,1-.376-.093.814.814,0,0,1-.343-1.1A19.591,19.591,0,0,1,38.513,17.186a.813.813,0,0,1-.02,1.626h-.246a17.977,17.977,0,0,0-16.013,9.648.814.814,0,0,1-.721.435Z" fill="#fff"/>
        <g id="그룹_22" data-name="그룹 22">
          <path id="패스_2099" data-name="패스 2099" d="M34.046,68.4a.813.813,0,0,1-.813-.813V41.379a.813.813,0,1,1,1.626,0V67.588A.813.813,0,0,1,34.046,68.4Z" fill="#fff"/>
          <path id="패스_2100" data-name="패스 2100" d="M43.249,68.4a.813.813,0,0,1-.813-.813V41.379a.813.813,0,1,1,1.626,0V67.588A.813.813,0,0,1,43.249,68.4Z" fill="#fff"/>
        </g>
        <path id="패스_2101" data-name="패스 2101" d="M42.55,46.257A3.085,3.085,0,0,1,39.9,44.732a1.445,1.445,0,0,0-2.5,0,3.07,3.07,0,0,1-5.3,0,1.445,1.445,0,0,0-2.5,0,.813.813,0,0,1-1.4-.821,3.07,3.07,0,0,1,5.3,0,1.445,1.445,0,0,0,2.5,0,3.07,3.07,0,0,1,5.3,0,1.445,1.445,0,0,0,2.5,0,3.07,3.07,0,0,1,5.3,0,.813.813,0,1,1-1.4.821,1.445,1.445,0,0,0-2.5,0,3.085,3.085,0,0,1-2.652,1.524Z" fill="#fff"/>
        <path id="패스_2102" data-name="패스 2102" d="M41.737,82H35.526a.814.814,0,0,1-.8-.679l-.618-3.713a.813.813,0,0,1,1.6-.266l.5,3.032h4.833l.5-3.032a.813.813,0,0,1,1.6.266l-.618,3.713a.812.812,0,0,1-.8.679Z" fill="#fff"/>
        <path id="패스_2103" data-name="패스 2103" d="M45.07,77.718H32.225a.812.812,0,0,1-.807-.711L30.3,68.015a.812.812,0,0,1,1.612-.2l1.032,8.278H44.348l1.032-8.278a.812.812,0,0,1,1.612.2l-1.122,8.991a.812.812,0,0,1-.807.711Z" fill="#fff"/>
        <path id="패스_2104" data-name="패스 2104" d="M42.355,72.726H31.64a.813.813,0,0,1,0-1.626H42.355a.813.813,0,0,1,0,1.626Z" fill="#fff"/>
      </g>
      <path id="패스_2105" data-name="패스 2105" d="M38.648,8.406a.813.813,0,0,1-.813-.813V.813a.813.813,0,1,1,1.626,0v6.78A.813.813,0,0,1,38.648,8.406Z" fill="#fff"/>
      <path id="패스_2106" data-name="패스 2106" d="M21.088,12.649a.81.81,0,0,1-.705-.409L17,6.355a.812.812,0,1,1,1.408-.809l3.382,5.886a.813.813,0,0,1-.705,1.217Z" fill="#fff"/>
      <path id="패스_2107" data-name="패스 2107" d="M9.4,27.933a.81.81,0,0,1-.4-.108L3.124,24.443a.813.813,0,1,1,.811-1.408L9.8,26.417A.812.812,0,0,1,9.4,27.933Z" fill="#fff"/>
      <path id="패스_2108" data-name="패스 2108" d="M8.731,65.182a.814.814,0,0,1-.409-1.518l5.869-3.4a.814.814,0,1,1,.815,1.408l-5.869,3.4A.8.8,0,0,1,8.731,65.182Z" fill="#fff"/>
      <path id="패스_2109" data-name="패스 2109" d="M7.593,46.289H.813a.813.813,0,0,1,0-1.626h6.78a.813.813,0,0,1,0,1.626Z" fill="#fff"/>
      <path id="패스_2110" data-name="패스 2110" d="M56.207,12.649a.813.813,0,0,1-.705-1.217l3.382-5.886a.812.812,0,1,1,1.408.809L56.91,12.241a.813.813,0,0,1-.705.409Z" fill="#fff"/>
      <path id="패스_2111" data-name="패스 2111" d="M67.9,27.933a.812.812,0,0,1-.406-1.516l5.869-3.382a.813.813,0,1,1,.811,1.408L68.3,27.825A.816.816,0,0,1,67.9,27.933Z" fill="#fff"/>
      <path id="패스_2112" data-name="패스 2112" d="M68.564,65.182a.8.8,0,0,1-.406-.11l-5.869-3.4a.814.814,0,0,1,.815-1.408l5.869,3.4a.814.814,0,0,1-.409,1.518Z" fill="#fff"/>
      <path id="패스_2113" data-name="패스 2113" d="M76.482,46.289H69.7a.813.813,0,1,1,0-1.626h6.78a.813.813,0,1,1,0,1.626Z" fill="#fff"/>
    </g>
  </g>
</svg>
