<svg xmlns="http://www.w3.org/2000/svg" xmlns:xlink="http://www.w3.org/1999/xlink" width="82" height="82" viewBox="0 0 82 82">
  <defs>
    <clipPath id="clip-path">
      <rect id="사각형_29" data-name="사각형 29" width="82" height="82" transform="translate(1079 3128)" fill="#fff"/>
    </clipPath>
  </defs>
  <g id="sec03_icon04" transform="translate(-1079 -3128)" clip-path="url(#clip-path)">
    <g id="icon02" transform="translate(1088.262 3128)">
      <path id="패스_2071" data-name="패스 2071" d="M62.666,78.179H.81a.809.809,0,0,1-.81-.81V.81A.809.809,0,0,1,.81,0H62.666a.809.809,0,0,1,.81.81V77.369A.809.809,0,0,1,62.666,78.179ZM1.619,76.559H61.856V1.619H1.619Z" fill="#fff"/>
      <path id="패스_2072" data-name="패스 2072" d="M62.666,82H.81A.809.809,0,0,1,0,81.19V77.369a.81.81,0,0,1,1.619,0v3.012H61.856V77.369a.81.81,0,0,1,1.619,0V81.19A.809.809,0,0,1,62.666,82Z" fill="#fff"/>
      <path id="패스_2073" data-name="패스 2073" d="M23.253,14.331h-11.8a.81.81,0,0,1,0-1.619h11.8a.81.81,0,1,1,0,1.619Z" fill="#fff"/>
      <path id="패스_2074" data-name="패스 2074" d="M52.027,20.775H11.448a.81.81,0,1,1,0-1.619H52.027a.81.81,0,1,1,0,1.619Z" fill="#fff"/>
      <path id="패스_2075" data-name="패스 2075" d="M52.027,27.22H11.448a.81.81,0,0,1,0-1.619H52.027a.81.81,0,1,1,0,1.619Z" fill="#fff"/>
      <path id="패스_2076" data-name="패스 2076" d="M39.753,33.665h-28.3a.81.81,0,1,1,0-1.619h28.3a.81.81,0,0,1,0,1.619Z" fill="#fff"/>
      <path id="패스_2077" data-name="패스 2077" d="M35.7,40.126H11.448a.81.81,0,0,1,0-1.619H35.7a.81.81,0,0,1,0,1.619Z" fill="#fff"/>
      <path id="패스_2078" data-name="패스 2078" d="M31.543,59.46h-20.1a.81.81,0,0,1,0-1.619h20.1a.81.81,0,1,1,0,1.619Z" fill="#fff"/>
      <path id="패스_2079" data-name="패스 2079" d="M23.253,65.9h-11.8a.81.81,0,0,1,0-1.619h11.8a.81.81,0,0,1,0,1.619Z" fill="#fff"/>
      <path id="패스_2080" data-name="패스 2080" d="M46.635,61.322a.806.806,0,0,1-.7-.4L44.2,57.905l-3.172,1.419a.809.809,0,0,1-1.136-.824l.362-3.453-3.4-.723a.81.81,0,0,1-.433-1.334l2.328-2.583-2.328-2.583a.81.81,0,0,1,.433-1.334l3.4-.723-.362-3.453a.809.809,0,0,1,1.136-.824L44.2,42.911,45.935,39.9a.808.808,0,0,1,.7-.4h0a.808.808,0,0,1,.7.407l1.725,3.008,3.17-1.417a.809.809,0,0,1,1.136.824L53,45.769l3.4.723a.81.81,0,0,1,.435,1.332l-2.318,2.585,2.318,2.585a.81.81,0,0,1-.435,1.332l-3.4.723.362,3.453a.809.809,0,0,1-1.136.824l-3.17-1.417-1.725,3.008a.808.808,0,0,1-.7.407h0ZM44.53,56.059a.814.814,0,0,1,.7.4l1.4,2.425,1.389-2.423a.809.809,0,0,1,1.032-.336l2.556,1.144-.291-2.781a.809.809,0,0,1,.638-.876l2.745-.583L52.833,50.95a.811.811,0,0,1,0-1.081L54.7,47.787,51.956,47.2a.811.811,0,0,1-.638-.876l.291-2.781L49.054,44.69a.809.809,0,0,1-1.032-.336l-1.389-2.423-1.4,2.425a.808.808,0,0,1-1.032.334l-2.556-1.144.291,2.781a.809.809,0,0,1-.638.876l-2.741.583,1.878,2.083a.811.811,0,0,1,0,1.085l-1.878,2.083,2.741.583a.811.811,0,0,1,.638.876l-.291,2.781L44.2,56.134a.794.794,0,0,1,.33-.071Z" fill="#fff"/>
      <path id="패스_2081" data-name="패스 2081" d="M43.332,71.151a.8.8,0,0,1-.429-.123.808.808,0,0,1-.381-.686V58.164a.81.81,0,1,1,1.619,0V69.042l2.137-1.048a.813.813,0,0,1,.715,0l2.119,1.044V58.162a.81.81,0,1,1,1.619,0V70.339a.81.81,0,0,1-1.168.727l-2.931-1.443-2.945,1.443a.82.82,0,0,1-.356.083Z" fill="#fff"/>
    </g>
  </g>
</svg>
