<svg xmlns="http://www.w3.org/2000/svg" xmlns:xlink="http://www.w3.org/1999/xlink" width="82" height="82" viewBox="0 0 82 82">
  <defs>
    <clipPath id="clip-path">
      <rect id="사각형_29" data-name="사각형 29" width="82" height="82" transform="translate(1079 3128)" fill="#fff"/>
    </clipPath>
  </defs>
  <g id="sec03_icon02" transform="translate(-1079 -3128)" clip-path="url(#clip-path)">
    <g id="icon03" transform="translate(1079.186 3128)">
      <path id="패스_2082" data-name="패스 2082" d="M72.088,82h-45.1a.809.809,0,1,1,0-1.617,7.931,7.931,0,0,0,7.923-7.923V67.786a.808.808,0,0,1,.809-.809h45.1a.808.808,0,0,1,.809.809v4.673A9.55,9.55,0,0,1,72.088,82ZM32.3,80.383H72.088a7.931,7.931,0,0,0,7.923-7.923V68.595H36.529v3.865A9.539,9.539,0,0,1,32.3,80.383Z" fill="#fff"/>
      <path id="패스_2083" data-name="패스 2083" d="M18.256,15.459H.809A.808.808,0,0,1,0,14.65V9.541A9.55,9.55,0,0,1,9.541,0a.809.809,0,1,1,0,1.617A7.931,7.931,0,0,0,1.617,9.541v4.3H18.256a.809.809,0,1,1,0,1.617Z" fill="#fff"/>
      <path id="패스_2084" data-name="패스 2084" d="M70.923,82H26.988a9.55,9.55,0,0,1-9.541-9.541V9.557A7.931,7.931,0,0,0,9.524,1.633a.809.809,0,0,1,0-1.617H60.542A10.523,10.523,0,0,1,71.053,10.527V67.8a.809.809,0,0,1-1.617,0V10.527a8.9,8.9,0,0,0-8.894-8.894H14.832a9.539,9.539,0,0,1,4.233,7.923v62.9a7.931,7.931,0,0,0,7.923,7.923H70.923a.809.809,0,0,1,0,1.617Z" fill="#fff"/>
      <path id="패스_2085" data-name="패스 2085" d="M38.971,16.85H26.633a.809.809,0,0,1,0-1.617H38.971a.809.809,0,1,1,0,1.617Z" fill="#fff"/>
      <path id="패스_2086" data-name="패스 2086" d="M62.046,61.043H26.633a.809.809,0,0,1,0-1.617H62.046a.809.809,0,1,1,0,1.617Z" fill="#fff"/>
      <path id="패스_2087" data-name="패스 2087" d="M58.2,22.994H52.3a.809.809,0,0,1,0-1.617h5.9a.809.809,0,0,1,0,1.617Z" fill="#fff"/>
      <path id="패스_2088" data-name="패스 2088" d="M47.783,22.994H26.633a.809.809,0,0,1,0-1.617H47.783a.809.809,0,1,1,0,1.617Z" fill="#fff"/>
      <path id="패스_2089" data-name="패스 2089" d="M44.873,29.123H26.633a.809.809,0,1,1,0-1.617h18.24a.809.809,0,0,1,0,1.617Z" fill="#fff"/>
      <path id="패스_2090" data-name="패스 2090" d="M28.7,61.043a.808.808,0,0,1-.809-.809V44.905a.809.809,0,1,1,1.617,0v15.33A.808.808,0,0,1,28.7,61.043Z" fill="#fff"/>
      <path id="패스_2091" data-name="패스 2091" d="M35.057,61.043a.808.808,0,0,1-.809-.809V47.88a.809.809,0,1,1,1.617,0V60.235A.808.808,0,0,1,35.057,61.043Z" fill="#fff"/>
      <path id="패스_2092" data-name="패스 2092" d="M41.412,61.043a.808.808,0,0,1-.809-.809V36.982a.809.809,0,1,1,1.617,0V60.235A.808.808,0,0,1,41.412,61.043Z" fill="#fff"/>
      <path id="패스_2093" data-name="패스 2093" d="M47.783,61.043a.808.808,0,0,1-.809-.809V38.971a.809.809,0,0,1,1.617,0V60.235A.808.808,0,0,1,47.783,61.043Z" fill="#fff"/>
      <path id="패스_2094" data-name="패스 2094" d="M54.138,61.043a.808.808,0,0,1-.809-.809V46.069a.809.809,0,1,1,1.617,0V60.235A.808.808,0,0,1,54.138,61.043Z" fill="#fff"/>
      <path id="패스_2095" data-name="패스 2095" d="M60.493,61.043a.808.808,0,0,1-.809-.809V38.308a.809.809,0,1,1,1.617,0V60.235A.808.808,0,0,1,60.493,61.043Z" fill="#fff"/>
    </g>
  </g>
</svg>
